<svg width="40" height="40" viewBox="0 0 40 40" fill="none" xmlns="http://www.w3.org/2000/svg">
<path d="M33.1247 6.11251L33.0127 6.00667L32.9099 6.12145L20.2599 20.2468L20.2598 20.2469C15.9649 25.0511 14.5928 31.119 16.3768 37.2563C10.0271 35.9415 5.26563 31.6639 3.20955 25.4576C9.50849 26.5902 15.4444 24.5659 19.7391 19.7916L19.7395 19.7911L32.3598 5.63594L32.4618 5.52144L32.3451 5.42195C24.4854 -1.27581 12.6652 -0.555477 5.73473 7.19425C-1.31521 15.0636 -0.655266 27.2275 7.2047 34.2859C15.0653 41.3449 27.1853 40.6235 34.2051 32.7543C41.1648 25.005 40.6247 13.2009 33.1247 6.11251ZM30.658 6.0018C24.4551 12.7093 14.2586 13.61 7.04822 8.07921C13.1637 1.34332 23.3887 0.412768 30.658 6.0018ZM3.5058 13.8184L4.15491 12.2936C9.22175 15.9018 15.3457 16.5995 20.9366 14.3881C15.4323 17.2403 9.02867 17.0817 3.5058 13.8184ZM2.37193 20.4796L2.47067 18.8731C7.74261 21.1829 13.4448 20.8753 18.3347 18.0277C13.7251 21.4713 7.97714 22.34 2.37193 20.4796ZM21.4115 37.5851C18.8769 32.2264 19.183 26.3633 22.1566 21.396C19.8313 26.5795 20.1052 32.2883 23.0181 37.3376L21.4115 37.5851ZM27.8852 35.7089C24.1468 30.6581 23.2709 24.4327 25.3652 18.7189C23.8723 24.4228 25.2812 30.3372 29.3599 34.9081L27.8852 35.7089ZM32.729 7.87276C39.0729 14.4859 39.2206 24.7237 33.2543 31.5987C26.9093 24.9846 26.7055 14.7468 32.729 7.87276Z" fill="#2F80ED" stroke="#2F80ED" stroke-width="0.3"/>
</svg>
